<svg xmlns="http://www.w3.org/2000/svg" style="display: none;">
  <defs>
    <!-- Cybersecurity Icons -->
    
    <!-- Shield with Lock -->
    <symbol id="shield-lock" viewBox="0 0 24 24">
      <path fill="currentColor" d="M12,1L3,5V11C3,16.55 6.84,21.74 12,23C17.16,21.74 21,16.55 21,11V5L12,1M12,7C13.4,7 14.8,8.6 14.8,10V11.5C15.4,11.5 16,12.4 16,13V16C16,17.4 15.4,18 14.8,18H9.2C8.6,18 8,17.4 8,16V13C8,12.4 8.6,11.5 9.2,11.5V10C9.2,8.6 10.6,7 12,7M12,8.2C11.2,8.2 10.5,8.7 10.5,10V11.5H13.5V10C13.5,8.7 12.8,8.2 12,8.2Z"/>
    </symbol>
    
    <!-- Bug/Vulnerability -->
    <symbol id="bug" viewBox="0 0 24 24">
      <path fill="currentColor" d="M14,12H10V10H14M14,16H10V14H14M20,8H17.19C16.74,7.22 16.12,6.55 15.37,6.04L17,4.41L15.59,3L13.42,5.17C12.96,5.06 12.5,5 12,5C11.5,5 11.04,5.06 10.59,5.17L8.41,3L7,4.41L8.62,6.04C7.88,6.55 7.26,7.22 6.81,8H4V10H6.09C6.04,10.33 6,10.66 6,11V12H4V14H6V15C6,15.34 6.04,15.67 6.09,16H4V18H6.81C7.85,19.79 9.78,21 12,21C14.22,21 16.15,19.79 17.19,18H20V16H17.91C17.96,15.67 18,15.34 18,15V14H20V12H18V11C18,10.66 17.96,10.33 17.91,10H20V8Z"/>
    </symbol>
    
    <!-- Network/Nodes -->
    <symbol id="network" viewBox="0 0 24 24">
      <path fill="currentColor" d="M17,3A4,4 0 0,1 21,7A4,4 0 0,1 17,11A4,4 0 0,1 13,7A4,4 0 0,1 17,3M7,13A4,4 0 0,1 11,17A4,4 0 0,1 7,21A4,4 0 0,1 3,17A4,4 0 0,1 7,13M17,13A4,4 0 0,1 21,17A4,4 0 0,1 17,21A4,4 0 0,1 13,17A4,4 0 0,1 17,13M12.46,5.44L9.54,15.56L8.54,15.06L11.46,4.94L12.46,5.44M8.41,16.41L16.41,8.41L17.59,9.59L9.59,17.59L8.41,16.41M14.12,18.5L11.88,5.5L12.88,5.27L15.12,18.27L14.12,18.5Z"/>
    </symbol>
    
    <!-- Terminal/Console -->
    <symbol id="terminal" viewBox="0 0 24 24">
      <path fill="currentColor" d="M20,19V7H4V19H20M20,3A2,2 0 0,1 22,5V19A2,2 0 0,1 20,21H4A2,2 0 0,1 2,19V5C2,3.89 2.9,3 4,3H20M13,17V15H18V17H13M9.58,13L5.57,9H8.4L11.7,12.3C12.09,12.69 12.09,13.33 11.7,13.72L8.42,17H5.59L9.58,13Z"/>
    </symbol>
    
    <!-- Key/Encryption -->
    <symbol id="key" viewBox="0 0 24 24">
      <path fill="currentColor" d="M7,14A3,3 0 0,1 10,17A3,3 0 0,1 7,20A3,3 0 0,1 4,17A3,3 0 0,1 7,14M7.31,16L6,17.31L7.31,18.62L8.62,17.31L7.31,16M7.31,4L18.62,15.31L17.31,16.62L16.62,15.93L15.31,17.24L14.69,16.62L16,15.31L13.62,12.93L12.31,14.24L11.69,13.62L13,12.31L10.62,9.93L9.31,11.24L8.69,10.62L10,9.31L6,5.31L7.31,4Z"/>
    </symbol>
    
    <!-- Eye/Monitoring -->
    <symbol id="eye" viewBox="0 0 24 24">
      <path fill="currentColor" d="M12,9A3,3 0 0,0 9,12A3,3 0 0,0 12,15A3,3 0 0,0 15,12A3,3 0 0,0 12,9M12,17A5,5 0 0,1 7,12A5,5 0 0,1 12,7A5,5 0 0,1 17,12A5,5 0 0,1 12,17M12,4.5C7,4.5 2.73,7.61 1,12C2.73,16.39 7,19.5 12,19.5C17,19.5 21.27,16.39 23,12C21.27,7.61 17,4.5 12,4.5Z"/>
    </symbol>
    
    <!-- Fingerprint -->
    <symbol id="fingerprint" viewBox="0 0 24 24">
      <path fill="currentColor" d="M17.81,4.47C17.73,4.47 17.65,4.45 17.58,4.41C15.66,3.42 14,3.87 12.54,5.48C11.10,7.08 10.5,9.23 10.61,11.39C10.71,13.55 11.58,15.73 12.84,17.42C13.97,19.06 15.58,20.44 17.58,21.2C17.73,21.25 17.9,21.22 18.04,21.12C18.17,21.03 18.25,20.87 18.25,20.71V4.47H17.81M16.74,20.12C15.22,19.29 14.06,18.11 13.11,16.83C11.84,15.19 11.27,13.19 11.18,11.39C11.07,9.29 11.54,7.27 12.81,5.79C13.89,4.53 15.16,4.12 16.74,4.47V20.12M11.00,8.18C11.32,7.93 11.69,7.73 12.09,7.59C12.2,7.56 12.3,7.47 12.3,7.36C12.3,7.18 12.17,7.05 12,7.05C11.81,7.05 11.62,7.12 11.46,7.25C9.9,8.48 9.05,10.8 9.44,13.12C9.82,15.44 11.34,17.27 13.46,18.1C13.62,18.16 13.8,18.08 13.87,17.92C13.93,17.76 13.85,17.58 13.69,17.52C11.82,16.81 10.5,15.23 10.15,13.19C9.81,11.15 10.5,9.07 11.87,7.94C10.03,9.97 10.87,13.14 13.27,14.65C15.67,16.17 18.84,15.33 20.36,12.93C20.5,12.68 20.35,12.35 20.05,12.35H20.03C19.8,12.35 19.59,12.5 19.5,12.71C18.22,15.54 14.88,16.64 12.05,15.36C9.22,14.07 8.12,10.74 9.4,7.91C9.57,7.53 9.8,7.18 10.07,6.87C8.95,8.25 8.5,10.11 8.89,11.92C9.28,13.73 10.34,15.27 11.82,16.19C12.04,16.32 12.32,16.25 12.45,16.04C12.58,15.82 12.51,15.54 12.29,15.41C11.04,14.65 10.13,13.36 9.8,11.84C9.47,10.32 9.84,8.74 10.79,7.5L11.00,8.18Z"/>
    </symbol>
    
    <!-- Server/Database -->
    <symbol id="server" viewBox="0 0 24 24">
      <path fill="currentColor" d="M4,1H20A1,1 0 0,1 21,2V6A1,1 0 0,1 20,7H4A1,1 0 0,1 3,6V2A1,1 0 0,1 4,1M4,9H20A1,1 0 0,1 21,10V14A1,1 0 0,1 20,15H4A1,1 0 0,1 3,14V10A1,1 0 0,1 4,9M4,17H20A1,1 0 0,1 21,18V22A1,1 0 0,1 20,23H4A1,1 0 0,1 3,22V18A1,1 0 0,1 4,17M5,2V6H19V2H5M5,10V14H19V10H5M5,18V22H19V18H5M7,4H9V4H7V4M7,12H9V12H7V12M7,20H9V20H7V20Z"/>
    </symbol>
    
    <!-- Alert/Warning -->
    <symbol id="alert" viewBox="0 0 24 24">
      <path fill="currentColor" d="M13,14H11V10H13M13,18H11V16H13M1,21H23L12,2L1,21Z"/>
    </symbol>
    
    <!-- Search/Scan -->
    <symbol id="search" viewBox="0 0 24 24">
      <path fill="currentColor" d="M9.5,3A6.5,6.5 0 0,1 16,9.5C16,11.11 15.41,12.59 14.44,13.73L14.71,14H15.5L20.5,19L19,20.5L14,15.5V14.71L13.73,14.44C12.59,15.41 11.11,16 9.5,16A6.5,6.5 0 0,1 3,9.5A6.5,6.5 0 0,1 9.5,3M9.5,5C7,5 5,7 5,9.5C5,12 7,14 9.5,14C12,14 14,12 14,9.5C14,7 12,5 9.5,5Z"/>
    </symbol>
    
    <!-- Code/Development -->
    <symbol id="code" viewBox="0 0 24 24">
      <path fill="currentColor" d="M8,3A2,2 0 0,0 6,5V9A2,2 0 0,1 4,11H3V13H4A2,2 0 0,1 6,15V19A2,2 0 0,0 8,21H10V19H8V14A2,2 0 0,0 6,12A2,2 0 0,0 8,10V5H10V3M16,3A2,2 0 0,1 18,5V9A2,2 0 0,0 20,11H21V13H20A2,2 0 0,0 18,15V19A2,2 0 0,1 16,21H14V19H16V14A2,2 0 0,1 18,12A2,2 0 0,1 16,10V5H14V3H16Z"/>
    </symbol>
    
    <!-- Lock -->
    <symbol id="lock" viewBox="0 0 24 24">
      <path fill="currentColor" d="M12,17A2,2 0 0,0 14,15C14,13.89 13.1,13 12,13A2,2 0 0,0 10,15A2,2 0 0,0 12,17M18,8A2,2 0 0,1 20,10V20A2,2 0 0,1 18,22H6A2,2 0 0,1 4,20V10C4,8.89 4.9,8 6,8H7V6A5,5 0 0,1 12,1A5,5 0 0,1 17,6V8H18M12,3A3,3 0 0,0 9,6V8H15V6A3,3 0 0,0 12,3Z"/>
    </symbol>
    
    <!-- Unlock -->
    <symbol id="unlock" viewBox="0 0 24 24">
      <path fill="currentColor" d="M18,8A2,2 0 0,1 20,10V20A2,2 0 0,1 18,22H6A2,2 0 0,1 4,20V10A2,2 0 0,1 6,8H15V6A3,3 0 0,0 12,3A3,3 0 0,0 9,6H7A5,5 0 0,1 12,1A5,5 0 0,1 17,6V8H18M12,17A2,2 0 0,0 14,15A2,2 0 0,0 12,13A2,2 0 0,0 10,15A2,2 0 0,0 12,17Z"/>
    </symbol>
    
    <!-- WiFi Security -->
    <symbol id="wifi-strength" viewBox="0 0 24 24">
      <path fill="currentColor" d="M12,3C7.79,3 3.7,4.41 0.38,7.08L12,21.5L23.62,7.08C20.3,4.41 16.21,3 12,3M12,5C15.07,5 18.09,5.86 20.71,7.45L12,18.1L3.29,7.45C5.91,5.86 8.93,5 12,5Z"/>
    </symbol>
    
    <!-- Firewall -->
    <symbol id="firewall" viewBox="0 0 24 24">
      <path fill="currentColor" d="M12,1L3,5V11C3,16.55 6.84,21.74 12,23C17.16,21.74 21,16.55 21,11V5L12,1M11,7H13A2,2 0 0,1 15,9V10.5H16V15.5H8V10.5H9V9A2,2 0 0,1 11,7M11,8.5V10.5H13V8.5A0.5,0.5 0 0,0 12.5,8A0.5,0.5 0 0,0 12,8.5A0.5,0.5 0 0,0 11.5,8A0.5,0.5 0 0,0 11,8.5Z"/>
    </symbol>
    
    <!-- Forensics/Evidence -->
    <symbol id="forensics" viewBox="0 0 24 24">
      <path fill="currentColor" d="M15.5,12C18,12 20,14 20,16.5C20,17.38 19.75,18.21 19.31,18.9L22.39,22L21,23.39L17.88,20.32C17.19,20.75 16.37,21 15.5,21C13,21 11,19 11,16.5C11,14 13,12 15.5,12M15.5,14A2.5,2.5 0 0,0 13,16.5A2.5,2.5 0 0,0 15.5,19A2.5,2.5 0 0,0 18,16.5A2.5,2.5 0 0,0 15.5,14M7,2H17A2,2 0 0,1 19,4V9.5C18.09,9.5 17.23,9.65 16.42,9.92L16,10H8V6H16V4H8V8H6V4A2,2 0 0,1 8,2H7V2M6,11V9H8V11H6M6,15V13H8V15H6M6,19V17H8V19H6M6,22H9.17C9.06,21.67 9,21.34 9,21V20H6V22Z"/>
    </symbol>
    
    <!-- Binary/Data -->
    <symbol id="binary" viewBox="0 0 24 24">
      <path fill="currentColor" d="M17,9H7V7H17M17,13H7V11H17M14,17H7V15H14M12,3A1,1 0 0,1 13,4A1,1 0 0,1 12,5A1,1 0 0,1 11,4A1,1 0 0,1 12,3M19,3H14.82C14.4,1.84 13.3,1 12,1C10.7,1 9.6,1.84 9.18,3H5A2,2 0 0,0 3,5V19A2,2 0 0,0 5,21H19A2,2 0 0,0 21,19V5A2,2 0 0,0 19,3Z"/>
    </symbol>
    
    <!-- Threat/Danger -->
    <symbol id="threat" viewBox="0 0 24 24">
      <path fill="currentColor" d="M12,2L13.09,8.26L22,9L13.09,9.74L12,16L10.91,9.74L2,9L10.91,8.26L12,2M12,21.5C12,21.5 6.5,18 6.5,12V7L12,4L17.5,7V12C17.5,18 12,21.5 12,21.5Z"/>
    </symbol>
    
    <!-- Penetration Testing -->
    <symbol id="penetration" viewBox="0 0 24 24">
      <path fill="currentColor" d="M15.5,2L18.5,9H22L19,12L20.5,22L15.5,19L10.5,22L12,12L9,9H12.5L15.5,2M6.5,2C4.01,2 2,4.01 2,6.5C2,8.99 4.01,11 6.5,11C8.99,11 11,8.99 11,6.5C11,4.01 8.99,2 6.5,2M6.5,4C7.88,4 9,5.12 9,6.5C9,7.88 7.88,9 6.5,9C5.12,9 4,7.88 4,6.5C4,5.12 5.12,4 6.5,4Z"/>
    </symbol>
    
    <!-- Social Media Icons -->
    
    <!-- LinkedIn -->
    <symbol id="linkedin" viewBox="0 0 24 24">
      <path fill="currentColor" d="M19 3A2 2 0 0 1 21 5V19A2 2 0 0 1 19 21H5A2 2 0 0 1 3 19V5A2 2 0 0 1 5 3H19M18.5 18.5V13.2A3.26 3.26 0 0 0 15.24 9.94C14.39 9.94 13.4 10.46 12.92 11.24V10.13H10.13V18.5H12.92V13.57C12.92 12.8 13.54 12.17 14.31 12.17A1.4 1.4 0 0 1 15.71 13.57V18.5H18.5M6.88 8.56A1.68 1.68 0 0 0 8.56 6.88C8.56 5.95 7.81 5.19 6.88 5.19A1.69 1.69 0 0 0 5.19 6.88C5.19 7.81 5.95 8.56 6.88 8.56M8.27 18.5V10.13H5.5V18.5H8.27Z"/>
    </symbol>
    
    <!-- GitHub -->
    <symbol id="github" viewBox="0 0 24 24">
      <path fill="currentColor" d="M12,2A10,10 0 0,0 2,12C2,16.42 4.87,20.17 8.84,21.5C9.34,21.58 9.5,21.27 9.5,21C9.5,20.77 9.5,20.14 9.5,19.31C6.73,19.91 6.14,17.97 6.14,17.97C5.68,16.81 5.03,16.5 5.03,16.5C4.12,15.88 5.1,15.9 5.1,15.9C6.1,15.97 6.63,16.93 6.63,16.93C7.5,18.45 8.97,18 9.54,17.76C9.63,17.11 9.89,16.67 10.17,16.42C7.95,16.17 5.62,15.31 5.62,11.5C5.62,10.39 6,9.5 6.65,8.79C6.55,8.54 6.2,7.5 6.75,6.15C6.75,6.15 7.59,5.88 9.5,7.17C10.29,6.95 11.15,6.84 12,6.84C12.85,6.84 13.71,6.95 14.5,7.17C16.41,5.88 17.25,6.15 17.25,6.15C17.8,7.5 17.45,8.54 17.35,8.79C18,9.5 18.38,10.39 18.38,11.5C18.38,15.32 16.04,16.16 13.81,16.41C14.17,16.72 14.5,17.33 14.5,18.26C14.5,19.6 14.5,20.68 14.5,21C14.5,21.27 14.66,21.59 15.17,21.5C19.14,20.16 22,16.42 22,12A10,10 0 0,0 12,2Z"/>
    </symbol>
    
    <!-- Twitter -->
    <symbol id="twitter" viewBox="0 0 24 24">
      <path fill="currentColor" d="M22.46,6C21.69,6.35 20.86,6.58 20,6.69C20.88,6.16 21.56,5.32 21.88,4.31C21.05,4.81 20.13,5.16 19.16,5.36C18.37,4.5 17.26,4 16,4C13.65,4 11.73,5.92 11.73,8.29C11.73,8.63 11.77,8.96 11.84,9.27C8.28,9.09 5.11,7.38 3,4.79C2.63,5.42 2.42,6.16 2.42,6.94C2.42,8.43 3.17,9.75 4.33,10.5C3.62,10.5 2.96,10.3 2.38,10C2.38,10 2.38,10 2.38,10.03C2.38,12.11 3.86,13.85 5.82,14.24C5.46,14.34 5.08,14.39 4.69,14.39C4.42,14.39 4.15,14.36 3.89,14.31C4.43,16 6,17.26 7.89,17.29C6.43,18.45 4.58,19.13 2.56,19.13C2.22,19.13 1.88,19.11 1.54,19.07C3.44,20.29 5.7,21 8.12,21C16,21 20.33,14.46 20.33,8.79C20.33,8.6 20.33,8.42 20.32,8.23C21.16,7.63 21.88,6.87 22.46,6Z"/>
    </symbol>
    
    <!-- Email -->
    <symbol id="email" viewBox="0 0 24 24">
      <path fill="currentColor" d="M20,8L12,13L4,8V6L12,11L20,6M20,4H4C2.89,4 2,4.89 2,6V18A2,2 0 0,0 4,20H20A2,2 0 0,0 22,18V6C22,4.89 21.1,4 20,4Z"/>
    </symbol>
    
    <!-- Phone -->
    <symbol id="phone" viewBox="0 0 24 24">
      <path fill="currentColor" d="M6.62,10.79C8.06,13.62 10.38,15.94 13.21,17.38L15.41,15.18C15.69,14.9 16.08,14.82 16.43,14.93C17.55,15.3 18.75,15.5 20,15.5A1,1 0 0,1 21,16.5V20A1,1 0 0,1 20,21A17,17 0 0,1 3,4A1,1 0 0,1 4,3H7.5A1,1 0 0,1 8.5,4C8.5,5.25 8.7,6.45 9.07,7.57C9.18,7.92 9.1,8.31 8.82,8.59L6.62,10.79Z"/>
    </symbol>
    
    <!-- Location -->
    <symbol id="location" viewBox="0 0 24 24">
      <path fill="currentColor" d="M12,11.5A2.5,2.5 0 0,1 9.5,9A2.5,2.5 0 0,1 12,6.5A2.5,2.5 0 0,1 14.5,9A2.5,2.5 0 0,1 12,11.5M12,2A7,7 0 0,0 5,9C5,14.25 12,22 12,22C12,22 19,14.25 19,9A7,7 0 0,0 12,2Z"/>
    </symbol>
    
    <!-- Download -->
    <symbol id="download" viewBox="0 0 24 24">
      <path fill="currentColor" d="M5,20H19V18H5M19,9H15V3H9V9H5L12,16L19,9Z"/>
    </symbol>
    
    <!-- External Link -->
    <symbol id="external-link" viewBox="0 0 24 24">
      <path fill="currentColor" d="M14,3V5H17.59L7.76,14.83L9.17,16.24L19,6.41V10H21V3M19,19H5V5H12V3H5C3.89,3 3,3.9 3,5V19A2,2 0 0,0 5,21H19A2,2 0 0,0 21,19V12H19V19Z"/>
    </symbol>
    
    <!-- Arrow Right -->
    <symbol id="arrow-right" viewBox="0 0 24 24">
      <path fill="currentColor" d="M4,11V13H16L10.5,18.5L11.92,19.92L19.84,12L11.92,4.08L10.5,5.5L16,11H4Z"/>
    </symbol>
    
    <!-- Chevron Down -->
    <symbol id="chevron-down" viewBox="0 0 24 24">
      <path fill="currentColor" d="M7.41,8.58L12,13.17L16.59,8.58L18,10L12,16L6,10L7.41,8.58Z"/>
    </symbol>
    
    <!-- Menu -->
    <symbol id="menu" viewBox="0 0 24 24">
      <path fill="currentColor" d="M3,6H21V8H3V6M3,11H21V13H3V11M3,16H21V18H3V16Z"/>
    </symbol>
    
    <!-- Close -->
    <symbol id="close" viewBox="0 0 24 24">
      <path fill="currentColor" d="M19,6.41L17.59,5L12,10.59L6.41,5L5,6.41L10.59,12L5,17.59L6.41,19L12,13.41L17.59,19L19,17.59L13.41,12L19,6.41Z"/>
    </symbol>
    
    <!-- Check -->
    <symbol id="check" viewBox="0 0 24 24">
      <path fill="currentColor" d="M21,7L9,19L3.5,13.5L4.91,12.09L9,16.17L19.59,5.59L21,7Z"/>
    </symbol>
    
    <!-- Calendar -->
    <symbol id="calendar" viewBox="0 0 24 24">
      <path fill="currentColor" d="M19,3H18V1H16V3H8V1H6V3H5C3.89,3 3,3.9 3,5V19A2,2 0 0,0 5,21H19A2,2 0 0,0 21,19V5A2,2 0 0,0 19,3M19,19H5V8H19V19Z"/>
    </symbol>
    
    <!-- Clock -->
    <symbol id="clock" viewBox="0 0 24 24">
      <path fill="currentColor" d="M12,2A10,10 0 0,0 2,12A10,10 0 0,0 12,22A10,10 0 0,0 22,12A10,10 0 0,0 12,2M16.2,16.2L11,13V7H12.5V12.2L17,14.7L16.2,16.2Z"/>
    </symbol>
    
  </defs>
</svg>
